<?xml version="1.0" encoding="UTF-8"?>
<svg width="720px" height="127px" viewBox="0 0 720 127" version="1.1" xmlns="http://www.w3.org/2000/svg" xmlns:xlink="http://www.w3.org/1999/xlink">
    <title>hs-all-logos-outlined</title>
    <defs>
        <polygon id="path-1" points="0 377.013 977.342 377.013 977.342 -5.68434189e-14 0 -5.68434189e-14"></polygon>
    </defs>
    <g id="Page-1" stroke="none" stroke-width="1" fill="none" fill-rule="evenodd">
        <g id="hs-all-logos-outlined" transform="translate(-129.000000, -125.000000)">
            <path d="M214.5258,186.1445 L214.5258,186.1445 L226.6488,197.7005 C236.4858,207.5375 229.6928,231.1035 224.2748,236.5215 L193.4918,207.1785 L214.5238,186.1445 L214.5258,186.1445 Z M177.4298,191.9055 L177.4298,191.9055 L165.3068,180.3485 C155.4698,170.5115 162.2628,146.9465 167.6808,141.5285 L198.4638,170.8715 L177.4308,191.9045 L177.4298,191.9055 Z" id="Fill-1" fill="#007398"></path>
            <path d="M182.1928,129.4834 C184.2858,128.5044 186.4678,127.7294 188.7108,127.1704 C194.1128,125.8374 199.7148,125.5134 205.2358,126.2164 C211.0728,126.9504 216.7558,128.6054 222.0738,131.1224 C226.0668,132.9744 229.8648,135.2224 233.4088,137.8334 C236.8358,140.3594 240.1058,143.0914 243.1998,146.0164 C246.0968,148.7454 248.8538,151.6184 251.4608,154.6254 C253.9298,157.4904 256.1248,160.1304 258.0428,162.5484 L235.2158,180.0304 L182.1928,129.4834 Z" id="Fill-3" fill="#007398"></path>
            <path d="M150.7738,192.375 L210.5028,249.309 C208.3018,250.186 206.0098,250.814 203.6698,251.185 C198.2418,252.02 192.7068,251.857 187.3368,250.706 C181.7888,249.568 176.3918,247.786 171.2568,245.396 C167.0758,243.436 163.0418,241.173 159.1868,238.627 C155.1848,235.994 151.3448,233.123 147.6868,230.029 C144.0698,226.98 140.6318,223.725 137.3898,220.279 C134.3298,217.042 131.5268,213.57 129.0048,209.897 L150.7738,192.375 Z" id="Fill-5" fill="#007398"></path>
            <path d="M327.8158,193.3095 L327.8158,215.4615 L322.0438,215.4615 L322.0438,193.6995 C322.0438,186.9135 319.8598,183.1685 313.0728,183.1685 C306.5208,183.1685 303.2448,188.5505 303.2448,194.8695 L303.2448,215.4615 L297.4728,215.4615 L297.4728,161.6395 L303.2448,161.6395 L303.2448,184.8065 L303.4788,184.8065 C305.1178,180.9065 309.6408,178.1765 314.8678,178.1765 C325.3198,178.1765 327.8158,184.5735 327.8158,193.3095" id="Fill-7" fill="#007398"></path>
            <path d="M377.7357,197.1308 C377.7357,189.2528 372.6657,183.1688 364.5527,183.1688 C356.4407,183.1688 351.4487,189.2528 351.4487,197.1308 C351.4487,204.9318 356.4407,211.1718 364.5527,211.1718 C372.6657,211.1718 377.7357,204.9318 377.7357,197.1308 M345.5197,197.2868 C345.5197,186.1328 353.8667,178.1768 364.5527,178.1768 C375.2397,178.1768 383.6637,186.1328 383.6637,197.2868 C383.6637,208.5198 375.2397,216.2418 364.5527,216.2418 C353.8667,216.2418 345.5197,208.5198 345.5197,197.2868" id="Fill-9" fill="#007398"></path>
            <mask id="mask-2" fill="white">
                <use xlink:href="#path-1"></use>
            </mask>
            <g id="Clip-12"></g>
            <polygon id="Fill-11" fill="#007398" mask="url(#mask-2)" points="401.757 215.462 407.529 215.462 407.529 161.64 401.757 161.64"></polygon>
            <path d="M428.589,215.462 L434.361,215.462 L434.361,178.879 L428.589,178.879 L428.589,215.462 Z M431.475,170.298 C429.057,170.298 427.341,168.582 427.341,166.32 C427.341,164.058 429.057,162.342 431.475,162.342 C433.816,162.342 435.532,164.058 435.532,166.32 C435.453,168.582 433.816,170.298 431.475,170.298 L431.475,170.298 Z" id="Fill-13" fill="#007398" mask="url(#mask-2)"></path>
            <path d="M483.7367,197.0537 C483.7367,189.0967 479.2127,183.0907 471.0997,183.0907 C463.0657,183.0907 458.3847,189.0187 458.3847,196.9757 C458.3847,204.8537 463.0657,211.2497 471.0997,211.2497 C479.2127,211.2497 483.7367,204.9317 483.7367,197.0537 L483.7367,197.0537 Z M483.7367,209.1437 L483.6587,209.1437 C481.0067,213.5117 476.0917,216.2417 469.9297,216.2417 C458.7757,216.2417 452.4577,208.2077 452.4577,197.2087 C452.4577,186.3667 459.4767,178.1767 470.2427,178.1767 C475.8577,178.1767 480.7717,180.7507 483.4247,185.1187 L483.5807,185.1187 L483.5807,161.6397 L489.3527,161.6397 L489.3527,215.4617 L483.7367,215.4617 L483.7367,209.1437 Z" id="Fill-14" fill="#007398" mask="url(#mask-2)"></path>
            <path d="M521.7211,198.2236 C514.9361,198.5356 512.6731,201.2656 512.6731,205.0096 C512.6731,208.6756 515.7151,211.6396 520.3961,211.6396 C525.3881,211.6396 529.5221,208.7536 531.2391,206.4126 L531.2391,197.7546 L521.7211,198.2236 Z M531.2391,210.6256 C529.8341,212.1856 526.1681,216.2426 519.2251,216.2426 C512.2831,216.2426 506.6671,211.7956 506.6671,205.0876 C506.6671,198.8476 511.2701,194.4796 521.2541,194.0106 L531.1601,193.5426 L531.1601,191.9056 C531.1601,185.7436 527.0261,183.0126 521.4881,183.0126 C516.0281,183.0126 511.6591,185.1966 510.6451,185.8986 L508.6961,181.7646 C511.1141,180.3606 515.9501,178.1766 521.7211,178.1766 C532.4091,178.1766 537.0101,183.7146 537.0101,194.0106 L537.0101,215.4616 L531.3161,215.4616 L531.2391,210.6256 Z" id="Fill-15" fill="#007398" mask="url(#mask-2)"></path>
            <path d="M550.4252,178.8007 L556.4322,178.8787 L568.2872,208.9877 L579.9102,178.8007 L585.9162,178.8787 L568.0542,222.0917 C565.2462,228.8007 562.7502,230.5947 558.8502,230.5947 C555.5732,230.5947 553.1552,229.3467 553.1552,229.3467 L554.3252,224.4327 C554.3252,224.4327 556.3542,225.2897 557.9912,225.2897 C559.8632,225.2897 561.1902,225.2117 563.2952,220.2197 L565.3232,215.4617 L550.4252,178.8007 Z" id="Fill-16" fill="#007398" mask="url(#mask-2)"></path>
            <path d="M612.3568,216.3203 C606.5848,216.3203 600.5008,214.5263 596.1318,210.3913 L600.8128,202.9813 C603.9318,205.6333 609.0808,207.6613 612.2018,207.6613 C615.3208,207.6613 617.5038,206.8823 617.5038,204.3853 C617.5038,201.8893 611.8888,200.6413 610.4848,200.1733 C604.0878,198.5353 598.4728,196.2733 598.4728,188.3173 C598.4728,180.8293 605.0238,176.2263 613.0588,176.2263 C621.0928,176.2263 625.6178,179.1903 627.8008,180.9843 L623.7448,188.3173 C621.5608,186.6003 617.1938,184.5733 614.0728,184.5733 C611.1088,184.5733 609.4708,185.3523 609.4708,187.3813 C609.4708,189.4093 612.4348,190.3443 615.0858,191.1253 C621.7168,193.0753 628.6598,195.1033 628.6598,203.6053 C628.6598,212.8093 620.3128,216.3203 612.3568,216.3203" id="Fill-17" fill="#007398" mask="url(#mask-2)"></path>
            <path d="M668.7504,215.4619 L668.6724,211.0939 C667.0334,213.4339 662.9794,216.3199 657.4394,216.3199 C646.8314,216.3199 643.6334,209.8459 643.6334,200.2509 L643.6334,177.0069 L656.1134,177.0069 L656.1134,198.5349 C656.1134,202.9819 657.3614,206.0239 661.8084,206.0239 C666.2544,206.0239 668.2814,202.5139 668.2814,197.4429 L668.2814,177.0069 L680.7624,177.0069 L680.7624,215.4619 L668.7504,215.4619 Z" id="Fill-18" fill="#007398" mask="url(#mask-2)"></path>
            <path d="M698.545,215.462 L711.025,215.462 L711.025,177.007 L698.545,177.007 L698.545,215.462 Z M704.786,172.561 C700.573,172.561 697.687,169.986 697.687,166.086 C697.687,162.264 700.573,159.612 704.786,159.612 C708.997,159.612 711.883,162.264 711.883,166.086 C711.883,169.986 708.997,172.561 704.786,172.561 L704.786,172.561 Z" id="Fill-19" fill="#007398" mask="url(#mask-2)"></path>
            <path d="M743.2386,186.5224 L743.2386,200.3294 C743.2386,203.6834 743.4726,206.0234 747.2956,206.0234 C749.2446,206.0234 751.0396,205.3214 751.0396,205.3214 L751.6626,215.0724 C750.7266,215.3054 747.2956,216.3204 742.7706,216.3204 C732.7866,216.3204 730.6796,210.2354 730.6796,201.4204 L730.6796,186.5224 L725.2196,186.5224 L725.2196,177.0844 L730.6796,177.0844 L730.6796,166.6314 L743.2386,166.6314 L743.2386,177.0844 L751.7406,177.0844 L751.7406,186.5224 L743.2386,186.5224 Z" id="Fill-20" fill="#007398" mask="url(#mask-2)"></path>
            <path d="M784.3441,184.4169 C779.1961,184.4169 776.5431,188.4729 776.3871,192.1389 L792.2221,192.1389 C792.1441,188.6289 789.5711,184.4169 784.3441,184.4169 M803.6881,199.2369 L776.3091,199.2369 C776.8561,204.7749 781.0681,207.2709 786.1371,207.2709 C791.1291,207.2709 795.4981,205.0879 797.6821,203.6049 L802.5961,210.0799 C801.3481,211.0159 796.2781,216.3199 784.3441,216.3199 C772.4871,216.3199 763.8281,208.9869 763.8281,196.2729 C763.8281,183.5589 773.1901,176.3049 784.5781,176.3049 C795.9661,176.3049 803.8441,183.8709 803.8441,195.1039 C803.8441,196.9759 803.6881,199.2369 803.6881,199.2369" id="Fill-21" fill="#007398" mask="url(#mask-2)"></path>
            <path d="M832.0013,216.3203 C826.2293,216.3203 820.1453,214.5263 815.7763,210.3913 L820.4573,202.9813 C823.5763,205.6333 828.7253,207.6613 831.8463,207.6613 C834.9653,207.6613 837.1483,206.8823 837.1483,204.3853 C837.1483,201.8893 831.5333,200.6413 830.1293,200.1733 C823.7323,198.5353 818.1173,196.2733 818.1173,188.3173 C818.1173,180.8293 824.6683,176.2263 832.7033,176.2263 C840.7373,176.2263 845.2623,179.1903 847.4453,180.9843 L843.3893,188.3173 C841.2053,186.6003 836.8383,184.5733 833.7173,184.5733 C830.7533,184.5733 829.1153,185.3523 829.1153,187.3813 C829.1153,189.4093 832.0793,190.3443 834.7303,191.1253 C841.3613,193.0753 848.3043,195.1033 848.3043,203.6053 C848.3043,212.8093 839.9573,216.3203 832.0013,216.3203" id="Fill-22" fill="#007398" mask="url(#mask-2)"></path>
        </g>
    </g>
</svg>